# xmcd CD database file
#
# Track frame offsets:
#	150
#	22115
#	38030
#	66670
#	86922
#	110917
#	125315
#	149407
#	164630
#	197612
#	208152
#	239557
#	259534
#	290587
#	312227
#
# Disc length: 4378 seconds
#
# Revision: 0
# Processed by: cddbd v1.5.1PL0 Copyright (c) Steve Scherf et al.
# Submitted via: CDex 1.50Beta7
#
DISCID=f211180f
DTITLE=Various Artist - Jazz and Blues Legends
DYEAR=1900
DGENRE=Jazz
TTITLE0=I Concentrate On You
TTITLE1=Shuckin' and Jivin'
TTITLE2=Autumn Mood
TTITLE3=Stormy Monday Blues
TTITLE4=Yesterdays
TTITLE5=Hoochie Coochie Man
TTITLE6='Round Midnight
TTITLE7=Blueberry Hill
TTITLE8=Blues Connotation
TTITLE9=Dimples
TTITLE10=Brother K
TTITLE11=Sassy's Blues
TTITLE12=Apex
TTITLE13=The Thrill Is Gone
TTITLE14=In A Sentimental Mood
EXTD=
EXTT0=
EXTT1=
EXTT2=
EXTT3=
EXTT4=
EXTT5=
EXTT6=
EXTT7=
EXTT8=
EXTT9=
EXTT10=
EXTT11=
EXTT12=
EXTT13=
EXTT14=
PLAYORDER=
